HIERARCHY
ROOT Hips
{
	OFFSET -0.001795 -0.223333 0.028219
	CHANNELS 6 Xposition Yposition Zposition Zrotation Yrotation Xrotation 
	JOINT LeftUpLeg
	{
		OFFSET 0.069520 -0.091406 -0.006815
		CHANNELS 3 Zrotation Yrotation Xrotation
		JOINT LeftLeg
		{
			OFFSET 0.034277 -0.375199 -0.004496
			CHANNELS 3 Zrotation Yrotation Xrotation
			JOINT LeftFoot
			{
				OFFSET -0.013596 -0.397961 -0.043693
				CHANNELS 3 Zrotation Yrotation Xrotation
				JOINT LeftToe
				{
					OFFSET 0.026358 -0.055791 0.119288
					CHANNELS 3 Zrotation Yrotation Xrotation
					End Site
					{
						OFFSET 0.000000 0.000000 0.000000
					}
				}
			}
		}
	}
	JOINT RightUpLeg
	{
		OFFSET -0.067670 -0.090522 -0.004320
		CHANNELS 3 Zrotation Yrotation Xrotation
		JOINT RightLeg
		{
			OFFSET -0.038290 -0.382569 -0.008850
			CHANNELS 3 Zrotation Yrotation Xrotation
			JOINT RightFoot
			{
				OFFSET 0.015774 -0.398415 -0.042312
				CHANNELS 3 Zrotation Yrotation Xrotation
				JOINT RightToe
				{
					OFFSET -0.025372 -0.048144 0.123348
					CHANNELS 3 Zrotation Yrotation Xrotation
					End Site
					{
						OFFSET 0.000000 0.000000 0.000000
					}
				}
			}
		}
	}
	JOINT Spine
	{
		OFFSET -0.002533 0.108963 -0.026696
		CHANNELS 3 Zrotation Yrotation Xrotation
		JOINT Spine1
		{
			OFFSET 0.005487 0.135180 0.001092
			CHANNELS 3 Zrotation Yrotation Xrotation
			JOINT Spine2
			{
				OFFSET 0.001457 0.052922 0.025425
				CHANNELS 3 Zrotation Yrotation Xrotation
				JOINT Neck
				{
					OFFSET -0.002778 0.213870 -0.042857
					CHANNELS 3 Zrotation Yrotation Xrotation
					JOINT Head
					{
						OFFSET 0.005152 0.064970 0.051349
						CHANNELS 3 Zrotation Yrotation Xrotation
						End Site
						{
							OFFSET 0.000000 0.000000 0.000000
						}
					}
				}
				JOINT LeftShoulder
				{
					OFFSET 0.078845 0.121749 -0.034090
					CHANNELS 3 Zrotation Yrotation Xrotation
					JOINT LeftArm
					{
						OFFSET 0.090977 0.030469 -0.008868
						CHANNELS 3 Zrotation Yrotation Xrotation
						JOINT LeftForeArm
						{
							OFFSET 0.259612 -0.012772 -0.027456
							CHANNELS 3 Zrotation Yrotation Xrotation
							JOINT LeftHand
							{
								OFFSET 0.249234 0.008986 -0.001171
								CHANNELS 3 Zrotation Yrotation Xrotation
								End Site
								{
									OFFSET 0.000000 0.000000 0.000000
								}
							}
						}
					}
				}
				JOINT RightShoulder
				{
					OFFSET -0.081759 0.118833 -0.038615
					CHANNELS 3 Zrotation Yrotation Xrotation
					JOINT RightArm
					{
						OFFSET -0.096012 0.032551 -0.009143
						CHANNELS 3 Zrotation Yrotation Xrotation
						JOINT RightForeArm
						{
							OFFSET -0.253742 -0.013329 -0.021401
							CHANNELS 3 Zrotation Yrotation Xrotation
							JOINT RightHand
							{
								OFFSET -0.255298 0.007772 -0.005559
								CHANNELS 3 Zrotation Yrotation Xrotation
								End Site
								{
									OFFSET 0.000000 0.000000 0.000000
								}
							}
						}
					}
				}
			}
		}
	}
}
MOTION
Frames: 15
Frame Time: 0.050000
0.000000 0.948017 0.000000 1.160452 -5.463490 3.685310 6.396664 -0.195928 -3.965689 -4.089928 0.502327 1.002926 4.796181 11.745800 11.318829 0.000000 0.000000 0.000000 -3.755352 0.459720 -4.529942 5.369258 -0.486147 0.383808 -4.557999 -13.529040 9.182533 0.000000 0.000000 0.000000 3.504178 -1.086089 15.963787 -0.720733 0.580013 -19.814089 -1.644312 2.927741 26.909481 1.954902 0.173223 -22.949358 0.000000 0.000000 0.000000 -32.242413 -17.075351 10.171306 -53.084324 -23.996774 1.942238 5.745752 -37.503301 0.347408 0.000000 0.000000 0.000000 25.792318 14.219464 7.147550 51.079661 21.872627 1.909112 -15.303672 31.834751 -2.434220 0.000000 0.000000 0.000000 
-0.000134 0.946869 -0.000422 0.747026 -4.896009 4.024972 6.933874 -0.199513 -4.143130 -3.793933 0.455087 0.331470 4.057180 10.624717 11.609002 0.000000 0.000000 0.000000 -3.457325 0.449998 -4.419689 5.809982 -0.531834 0.158735 -4.815167 -14.033624 9.504892 0.000000 0.000000 0.000000 3.678938 -1.111492 15.548897 -0.425009 0.492017 -19.108327 -1.724034 3.303478 25.881344 2.387561 -0.055143 -21.706667 0.000000 0.000000 0.000000 -32.707121 -15.776855 8.858023 -52.131156 -22.792532 1.508097 3.144479 -44.839738 1.459681 0.000000 0.000000 0.000000 24.689626 13.581728 6.908289 52.635755 22.869458 2.562497 -14.574681 37.080510 -2.574067 0.000000 0.000000 0.000000 
-0.000127 0.947814 -0.001110 0.756042 -3.846246 3.268678 6.803320 -0.195632 -3.761418 -3.542200 0.415757 1.095748 3.845448 10.267773 10.864223 0.000000 0.000000 0.000000 -3.843699 0.368015 -3.348834 5.927345 -0.549805 -0.791818 -4.914465 -14.356362 10.818173 0.000000 0.000000 0.000000 3.540149 -1.078438 15.154302 -0.816900 0.641769 -19.685350 -1.688021 3.035449 26.013970 1.858080 0.216272 -20.288335 0.000000 0.000000 0.000000 -31.935308 -15.634533 8.528321 -51.965850 -24.503308 2.270597 5.666230 -50.058358 0.574145 0.000000 0.000000 0.000000 23.816588 14.076774 7.242352 52.804907 22.570727 2.431311 -11.430082 45.191440 -1.916730 0.000000 0.000000 0.000000 
-0.000195 0.947504 -0.002014 0.767540 -3.697748 2.771260 7.026435 -0.156449 -2.842253 -3.613002 0.424068 0.421539 3.691185 10.034618 10.887312 0.000000 0.000000 0.000000 -4.240086 0.335598 -2.847677 6.767570 -0.625302 -0.773976 -5.164088 -14.706185 10.230484 0.000000 0.000000 0.000000 3.033309 -0.979991 14.825451 -0.678530 0.616429 -20.104069 -1.534560 4.289551 26.519088 2.673402 -0.226586 -18.887648 0.000000 0.000000 0.000000 -30.051905 -16.568368 8.416110 -53.628016 -25.676845 3.131516 7.653705 -55.837010 -0.458387 0.000000 0.000000 0.000000 23.874474 13.722596 7.499246 52.558862 22.713261 2.330770 -6.330005 54.944032 0.525373 0.000000 0.000000 0.000000 
-0.000228 0.948445 -0.003002 0.661751 -2.421961 2.080781 6.886208 -0.148384 -2.237891 -3.240481 0.368539 0.620079 3.268364 9.428166 10.729138 0.000000 0.000000 0.000000 -4.135887 0.257736 -1.900993 6.266312 -0.599197 -1.210091 -4.841039 -14.154327 11.188671 0.000000 0.000000 0.000000 2.807328 -0.943804 14.459418 -0.761059 0.652882 -19.333597 -1.305274 3.966883 25.829531 2.161299 0.194372 -18.930049 0.000000 0.000000 0.000000 -27.710318 -16.721968 8.059601 -54.449656 -27.486289 4.244131 12.470747 -59.752639 -3.341574 0.000000 0.000000 0.000000 22.390405 13.544063 7.350234 54.295404 22.580698 2.582708 1.563495 64.527843 5.868975 0.000000 0.000000 0.000000 
-0.000050 0.949431 -0.004258 0.756193 -1.605741 2.141592 6.806424 -0.155163 -1.992952 -3.556885 0.400421 0.246970 3.060046 9.169473 10.775616 0.000000 0.000000 0.000000 -4.321133 0.243169 -1.712598 6.282302 -0.610138 -1.479393 -4.860671 -14.101413 11.058512 0.000000 0.000000 0.000000 2.211122 -0.834691 13.759990 -0.182752 0.540770 -20.626807 -1.234864 4.140171 26.607903 2.430336 0.086461 -18.717004 0.000000 0.000000 0.000000 -26.348017 -16.360504 7.506956 -53.969434 -28.944846 4.828040 14.677572 -62.715979 -4.963812 0.000000 0.000000 0.000000 21.225866 13.735667 7.556156 54.704041 21.868032 2.215333 16.764000 72.937529 18.632146 0.000000 0.000000 0.000000 
0.000346 0.950086 -0.005830 0.855998 -0.631748 1.614459 6.387483 -0.145686 -1.518972 -3.155567 0.349690 -0.071433 2.754897 8.941859 11.576660 0.000000 0.000000 0.000000 -4.444103 0.212916 -1.418580 5.841017 -0.592398 -1.077568 -4.599662 -13.530072 11.038099 0.000000 0.000000 0.000000 1.709292 -0.758106 13.405010 0.144960 0.467442 -20.282695 -1.097662 3.813640 26.244797 2.194047 0.329976 -19.263316 0.000000 0.000000 0.000000 -24.729721 -16.155017 7.142186 -54.064093 -30.836255 5.816820 19.470902 -63.144704 -8.057579 0.000000 0.000000 0.000000 20.620289 13.919521 7.641288 55.937526 22.266048 2.634310 30.382238 75.338203 30.430207 0.000000 0.000000 0.000000 
0.000969 0.950190 -0.008172 0.779366 -0.141082 1.406681 6.250154 -0.144836 -1.401349 -3.185147 0.351042 -0.307518 2.447986 8.430919 11.308825 0.000000 0.000000 0.000000 -4.200560 0.195551 -1.308937 5.334648 -0.553148 -0.941161 -4.891174 -13.954560 10.463131 0.000000 0.000000 0.000000 1.663283 -0.731942 12.918377 0.502566 0.378363 -20.258308 -1.357125 3.891434 26.299671 2.278784 0.337830 -19.309556 0.000000 0.000000 0.000000 -23.763592 -16.806687 7.335612 -53.283003 -32.654413 6.569353 23.830224 -61.335993 -10.494910 0.000000 0.000000 0.000000 20.282576 14.504725 8.036990 57.110885 22.724635 3.033368 36.591738 76.279767 36.291937 0.000000 0.000000 0.000000 
0.001567 0.950155 -0.011612 0.642054 0.219245 1.244693 6.170307 -0.146234 -1.376577 -3.098866 0.340967 -0.529986 2.183241 8.168830 11.842815 0.000000 0.000000 0.000000 -4.012931 0.201610 -1.519277 5.194372 -0.547839 -0.474995 -4.877046 -13.836665 9.997648 0.000000 0.000000 0.000000 1.797495 -0.751288 12.873392 0.465427 0.396964 -20.301527 -1.198165 4.226789 26.509613 2.595806 0.229509 -19.467160 0.000000 0.000000 0.000000 -23.037063 -17.567659 7.551430 -53.246688 -34.442970 7.444095 27.078610 -57.786488 -11.695207 0.000000 0.000000 0.000000 20.262704 14.709965 8.307975 57.968820 23.676993 3.633579 34.082303 76.203964 34.435549 0.000000 0.000000 0.000000 
0.001869 0.950041 -0.016198 0.469397 0.801969 1.105701 6.137640 -0.160490 -1.605656 -2.904199 0.315643 -0.366581 1.968832 7.837241 11.653805 0.000000 0.000000 0.000000 -3.611493 0.218214 -1.913442 4.740624 -0.510682 0.168586 -5.204518 -14.367139 9.558247 0.000000 0.000000 0.000000 2.018072 -0.787083 12.872125 0.194793 0.474449 -19.895087 -1.296054 4.400107 26.369575 2.658469 0.284363 -19.575943 0.000000 0.000000 0.000000 -22.450613 -17.912338 7.521663 -53.440288 -35.931482 8.261153 29.157299 -54.923830 -12.230158 0.000000 0.000000 0.000000 20.350294 14.790335 8.518610 59.524957 24.705379 4.457267 30.926797 75.272243 31.587179 0.000000 0.000000 0.000000 
0.001877 0.949583 -0.021711 0.420095 1.096386 1.002833 6.101906 -0.184115 -2.169533 -2.767326 0.292616 0.323765 1.555541 7.195472 11.645325 0.000000 0.000000 0.000000 -3.604350 0.220972 -1.997912 4.889803 -0.530926 0.161671 -5.281515 -14.507675 9.676231 0.000000 0.000000 0.000000 2.172510 -0.848259 13.477160 -0.292407 0.614278 -19.739178 -1.303674 5.243659 26.177969 3.110127 0.171692 -19.729000 0.000000 0.000000 0.000000 -22.324634 -18.986295 7.771173 -53.353301 -36.756131 8.736271 30.081544 -52.720178 -12.369318 0.000000 0.000000 0.000000 20.860067 15.399392 9.232203 60.638652 25.910669 5.348092 25.375813 74.335126 26.997089 0.000000 0.000000 0.000000 
0.001715 0.949711 -0.027765 0.234103 1.415700 0.975392 6.203985 -0.209450 -2.756446 -2.508629 0.256678 0.778646 1.388457 6.916910 11.492574 0.000000 0.000000 0.000000 -3.469819 0.237375 -2.275866 5.082717 -0.556850 0.193967 -5.535823 -15.018693 10.142345 0.000000 0.000000 0.000000 2.283236 -0.904072 14.025164 -0.887172 0.786410 -19.439352 -0.993919 5.937512 25.858154 3.332466 0.182358 -19.849417 0.000000 0.000000 0.000000 -22.895087 -19.605060 7.840424 -53.298632 -37.059370 8.989383 31.119825 -50.405563 -12.443475 0.000000 0.000000 0.000000 21.005494 15.915637 9.790537 61.675260 27.426134 6.487246 20.274469 72.864781 22.592601 0.000000 0.000000 0.000000 
0.001748 0.950038 -0.033809 0.183171 1.786593 1.096065 6.169706 -0.245015 -3.531972 -2.508049 0.249839 1.127159 1.077779 6.556767 11.850696 0.000000 0.000000 0.000000 -3.536005 0.264650 -2.688366 5.092104 -0.562815 0.254091 -5.467306 -14.902354 10.627711 0.000000 0.000000 0.000000 2.354355 -0.959663 14.585661 -1.579284 0.988584 -19.403621 -1.052356 6.785090 25.848868 3.935830 0.037981 -20.474693 0.000000 0.000000 0.000000 -23.003268 -20.227577 7.822758 -53.666347 -36.939051 9.095546 30.653698 -48.946152 -12.024330 0.000000 0.000000 0.000000 21.108194 16.548731 10.482862 62.286494 29.227086 7.721259 15.018280 71.489987 18.376602 0.000000 0.000000 0.000000 
0.002015 0.950748 -0.039120 0.037355 2.282862 1.149074 6.237225 -0.273146 -4.115137 -2.206131 0.206367 1.497799 1.020013 6.702633 12.462934 0.000000 0.000000 0.000000 -3.588875 0.274841 -2.882123 5.285036 -0.588214 -0.208375 -5.828791 -15.596851 11.325747 0.000000 0.000000 0.000000 2.520223 -1.029102 15.091386 -2.237196 1.188048 -19.396422 -0.905054 7.701816 25.861884 4.490042 -0.103757 -20.656815 0.000000 0.000000 0.000000 -23.676426 -21.252993 8.015368 -53.716365 -36.204879 8.866729 30.519299 -46.748498 -11.580668 0.000000 0.000000 0.000000 21.261362 16.734357 10.971453 62.642283 30.959963 8.874550 11.057049 69.390830 15.066742 0.000000 0.000000 0.000000 
0.002526 0.950931 -0.043219 0.100145 3.111726 1.325202 5.969234 -0.316938 -4.804233 -1.966497 0.166873 1.878297 0.834561 6.551841 12.617901 0.000000 0.000000 0.000000 -3.670896 0.276412 -2.975471 5.244870 -0.592347 -0.484245 -6.040771 -15.936585 11.652564 0.000000 0.000000 0.000000 2.416996 -1.076923 15.704794 -2.993421 1.418273 -19.328565 -0.761275 8.250881 25.701651 4.729328 -0.049835 -20.985194 0.000000 0.000000 0.000000 -24.550986 -21.484817 7.786924 -53.897496 -34.733269 8.327930 29.394090 -46.236739 -11.137059 0.000000 0.000000 0.000000 21.447209 17.380468 11.694787 62.327191 32.891386 9.982503 5.627056 67.124442 10.844596 0.000000 0.000000 0.000000 
